<?xml version="1.0" encoding="UTF-8"?>
<svg version="1.1" xmlns="http://www.w3.org/2000/svg" width="1584" height="1224">
<path d="M0 0 C13.57125 -0.061875 27.1425 -0.12375 41.125 -0.1875 C45.38293457 -0.21481201 49.64086914 -0.24212402 54.02783203 -0.27026367 C59.29663086 -0.28381348 59.29663086 -0.28381348 61.77658081 -0.28633118 C63.47932296 -0.2908862 65.1820565 -0.30132763 66.88473511 -0.31672668 C85.77857585 -0.47880434 103.6654886 1.5730507 118.51953125 14.4765625 C124.77335746 20.83872271 128.87936093 28.35431765 131 37 C131.27457031 38.09634766 131.27457031 38.09634766 131.5546875 39.21484375 C133.93652103 54.11174997 131.8638565 67.64739449 123 80 C115.22871781 90.01752693 103.06553523 95.0809189 91 98 C91.85271484 98.4021875 91.85271484 98.4021875 92.72265625 98.8125 C93.49480469 99.204375 94.26695312 99.59625 95.0625 100 C96.19365234 100.556875 96.19365234 100.556875 97.34765625 101.125 C104.9914298 106.52855126 109.49707936 114.68623193 114.125 122.625 C114.76663086 123.71079346 115.40826172 124.79658691 116.06933594 125.9152832 C117.39569428 128.16138265 118.71859957 130.40952467 120.03808594 132.65966797 C121.93288762 135.88573525 123.84234934 139.10257242 125.7578125 142.31640625 C126.92212908 144.27328635 128.08620296 146.23031087 129.25 148.1875 C129.78641113 149.08871582 130.32282227 149.98993164 130.87548828 150.91845703 C131.62548096 152.18665283 131.62548096 152.18665283 132.390625 153.48046875 C132.82407227 154.21160889 133.25751953 154.94274902 133.70410156 155.69604492 C135.23190847 158.41230599 136.60628065 161.2125613 138 164 C127.11 164 116.22 164 105 164 C102.855 160.266875 100.71 156.53375 98.5 152.6875 C96.77021741 149.69404505 95.03789752 146.70209008 93.30395508 143.71104431 C91.47258837 140.54998902 89.64635852 137.38620302 87.83203125 134.21533203 C86.07334201 131.14179444 84.30188875 128.07594931 82.52172852 125.01480103 C81.52051784 123.28543985 80.53257072 121.5484214 79.54492188 119.8112793 C73.55526223 109.55778103 69.75211722 105.91737241 58 102 C43.15 101.505 43.15 101.505 28 101 C28 121.79 28 142.58 28 164 C18.76 164 9.52 164 0 164 C0 109.88 0 55.76 0 0 Z M28 25 C28 42.49 28 59.98 28 78 C38.209375 78.061875 38.209375 78.061875 48.625 78.125 C50.74244629 78.14320801 52.85989258 78.16141602 55.04150391 78.18017578 C77.36414378 78.78039085 77.36414378 78.78039085 96.875 69.36328125 C102.26272613 63.59996844 103.45272999 57.2667663 103.2421875 49.546875 C102.47211555 41.44869902 99.21756595 35.28493105 93 30 C86.90588661 26.38944652 80.81403083 24.86894781 73.75073242 24.88647461 C72.19847961 24.88665588 72.19847961 24.88665588 70.61486816 24.88684082 C69.53926636 24.89195679 68.46366455 24.89707275 67.35546875 24.90234375 C65.85916931 24.90385437 65.85916931 24.90385437 64.3326416 24.90539551 C60.61758265 24.91061507 56.90254013 24.92457633 53.1875 24.9375 C44.875625 24.958125 36.56375 24.97875 28 25 Z " fill="#000000" transform="translate(342,520)"/>
<path d="M0 0 C14.7696048 -0.09057901 29.53903499 -0.16414316 44.30885601 -0.20724869 C51.1680012 -0.22780258 58.02696051 -0.25578421 64.88598633 -0.30175781 C71.5125414 -0.34615176 78.13895498 -0.36917717 84.76566505 -0.37950897 C87.28646688 -0.38686644 89.80725886 -0.40123338 92.32797813 -0.42292023 C117.7301677 -0.63265894 117.7301677 -0.63265894 128 4 C128.98002487 4.43439392 129.96004974 4.86878784 130.96977234 5.31634521 C144.16538723 11.50932779 151.38237162 22.01272309 157.21313477 34.79760742 C159.86944891 42.23248482 160.27949802 48.9020159 160.22705078 56.74023438 C160.22734283 57.89232391 160.22763489 59.04441345 160.22793579 60.23141479 C160.22654848 64.01893792 160.21101524 67.80626147 160.1953125 71.59375 C160.19158025 74.22790418 160.18873428 76.86205975 160.18673706 79.49621582 C160.18053892 85.70794412 160.16415085 91.91960141 160.14403808 98.13129854 C160.12162699 105.20751836 160.11067259 112.2837417 160.10064721 119.35998821 C160.079783 133.90670053 160.04312777 148.45333614 160 163 C151.42 163 142.84 163 134 163 C133.67 124.72 133.34 86.44 133 47 C126.91549705 52.26569809 126.91549705 52.26569809 121.11474609 57.76499939 C120.45585892 58.4225119 119.79697174 59.08002441 119.11811829 59.75746155 C118.42687363 60.45230148 117.73562897 61.14714142 117.0234375 61.86303711 C116.27124435 62.61508423 115.51905121 63.36713135 114.74406433 64.14196777 C112.28532863 66.60139408 109.8301432 69.06433165 107.375 71.52734375 C105.66029396 73.243917 103.94536542 74.96026802 102.23022461 76.67640686 C97.73673216 81.17370062 93.24625211 85.6739904 88.75640869 90.17492676 C84.16625657 94.77534449 79.57323983 99.37290026 74.98046875 103.97070312 C65.98418527 112.97768181 56.99098623 121.98773363 48 131 C46.87235462 130.03770644 45.74530718 129.07471216 44.61851501 128.11141968 C43.99082686 127.57522696 43.36313871 127.03903423 42.71642971 126.48659325 C40.97560802 124.9788742 39.31069463 123.42654513 37.69140625 121.7890625 C37.17255859 121.26699219 36.65371094 120.74492188 36.11914062 120.20703125 C35.60544922 119.68496094 35.09175781 119.16289063 34.5625 118.625 C34.02173828 118.07972656 33.48097656 117.53445313 32.92382812 116.97265625 C31.61353277 115.65076536 30.30641716 114.32572382 29 113 C33.34978517 107.7965618 37.92177132 102.9448988 42.73364258 98.16870117 C43.48393738 97.41986664 44.23423218 96.6710321 45.00726318 95.89950562 C46.62502583 94.28552837 48.24394203 92.6727067 49.86390114 91.06093407 C52.42522056 88.51243303 54.98335478 85.96077287 57.54069519 83.40827942 C62.96182803 77.99853906 68.38688837 72.59274792 73.8125 67.1875 C80.11771342 60.90586836 86.42131682 54.6226387 92.72073936 48.33519936 C95.24537791 45.81705992 97.77299979 43.30194095 100.30073547 40.78691101 C101.83841368 39.25286307 103.37595294 37.71867583 104.91333008 36.18432617 C105.97380806 35.13159767 105.97380806 35.13159767 107.05570984 34.05760193 C107.69630341 33.41707886 108.33689697 32.77655579 108.99690247 32.11662292 C109.83556713 31.28128918 109.83556713 31.28128918 110.69117451 30.42908001 C112.10726657 29.01404617 112.10726657 29.01404617 113 27 C75.71 26.67 38.42 26.34 0 26 C0 17.42 0 8.84 0 0 Z " fill="#000000" transform="translate(133,521)"/>
<path d="M0 0 C0.66 0.33 1.32 0.66 2 1 C2 11.23 2 21.46 2 32 C13.88 32 25.76 32 38 32 C38 38.93 38 45.86 38 53 C26.12 53 14.24 53 2 53 C2.06175063 64.584225 2.06175063 64.584225 2.16015625 76.16796875 C2.20844271 80.89502296 2.25250529 85.62184419 2.27099609 90.34912109 C2.28617993 94.16194987 2.32065493 97.97416775 2.36830902 101.78672409 C2.38310524 103.23865819 2.39104001 104.69067951 2.39188385 106.14268875 C2.39426082 108.18253362 2.42139312 110.22070005 2.45410156 112.26025391 C2.46298401 113.41941315 2.47186646 114.57857239 2.48101807 115.77285767 C3.11245265 119.69925501 4.54919956 121.90407323 7 125 C11.1881387 127.09406935 16.43904996 126.41898491 21 126 C25.66534258 123.84011918 28.51354992 120.51288746 31.703125 116.5859375 C33 115 33 115 35 113 C36.74541726 116.97010892 38.39013516 120.97309575 40 125 C40.70962891 126.70542969 40.70962891 126.70542969 41.43359375 128.4453125 C44.49267086 136.66003047 44.49267086 136.66003047 43.19140625 140.19921875 C41.61798077 142.16493459 40.03974035 143.52685419 38 145 C37.3915625 145.46921875 36.783125 145.9384375 36.15625 146.421875 C25.86549848 153.59166089 12.38656084 155.16897954 0.1875 153.375 C-8.37688003 151.4759965 -15.64870386 146.99143366 -21 140 C-24.726486 133.30591725 -26.11309791 127.4861729 -26.20532227 119.84472656 C-26.21522186 119.13213181 -26.22512146 118.41953705 -26.23532104 117.68534851 C-26.26683139 115.33714078 -26.29165191 112.98891285 -26.31640625 110.640625 C-26.33698483 109.00965864 -26.35798154 107.37869751 -26.37937927 105.7477417 C-26.43450665 101.46030923 -26.48395699 97.17282937 -26.53222656 92.88531494 C-26.58250983 88.50813594 -26.63816024 84.13102553 -26.69335938 79.75390625 C-26.80082677 71.16932733 -26.90180085 62.58468995 -27 54 C-32.94 53.67 -38.88 53.34 -45 53 C-45 46.07 -45 39.14 -45 32 C-39.06 31.67 -33.12 31.34 -27 31 C-27.04125 28.834375 -27.0825 26.66875 -27.125 24.4375 C-26.60862995 17.75151373 -26.60862995 17.75151373 -24.26953125 14.86328125 C-21.60458725 13.01969352 -18.85896602 11.52753419 -16 10 C-14.60834566 9.12120295 -13.22469951 8.22964479 -11.84765625 7.328125 C-3.86383799 2.13052749 -3.86383799 2.13052749 0 0 Z " fill="#000000" transform="translate(787,533)"/>
<path d="M0 0 C0.66 0.33 1.32 0.66 2 1 C2 11.23 2 21.46 2 32 C13.88 32 25.76 32 38 32 C38 38.93 38 45.86 38 53 C26.12 53 14.24 53 2 53 C2.06175063 64.584225 2.06175063 64.584225 2.16015625 76.16796875 C2.20844271 80.89502296 2.25250529 85.62184419 2.27099609 90.34912109 C2.28617993 94.16194987 2.32065493 97.97416775 2.36830902 101.78672409 C2.38310524 103.23865819 2.39104001 104.69067951 2.39188385 106.14268875 C2.39426082 108.18253362 2.42139312 110.22070005 2.45410156 112.26025391 C2.46298401 113.41941315 2.47186646 114.57857239 2.48101807 115.77285767 C3.11245265 119.69925501 4.54919956 121.90407323 7 125 C11.1881387 127.09406935 16.43904996 126.41898491 21 126 C25.66534258 123.84011918 28.51354992 120.51288746 31.703125 116.5859375 C33 115 33 115 35 113 C36.74541726 116.97010892 38.39013516 120.97309575 40 125 C40.70962891 126.70542969 40.70962891 126.70542969 41.43359375 128.4453125 C44.49267086 136.66003047 44.49267086 136.66003047 43.19140625 140.19921875 C41.61798077 142.16493459 40.03974035 143.52685419 38 145 C37.3915625 145.46921875 36.783125 145.9384375 36.15625 146.421875 C25.86549848 153.59166089 12.38656084 155.16897954 0.1875 153.375 C-8.37688003 151.4759965 -15.64870386 146.99143366 -21 140 C-24.726486 133.30591725 -26.11309791 127.4861729 -26.20532227 119.84472656 C-26.21522186 119.13213181 -26.22512146 118.41953705 -26.23532104 117.68534851 C-26.26683139 115.33714078 -26.29165191 112.98891285 -26.31640625 110.640625 C-26.33698483 109.00965864 -26.35798154 107.37869751 -26.37937927 105.7477417 C-26.43450665 101.46030923 -26.48395699 97.17282937 -26.53222656 92.88531494 C-26.58250983 88.50813594 -26.63816024 84.13102553 -26.69335938 79.75390625 C-26.80082677 71.16932733 -26.90180085 62.58468995 -27 54 C-32.94 53.67 -38.88 53.34 -45 53 C-45 46.07 -45 39.14 -45 32 C-39.06 31.67 -33.12 31.34 -27 31 C-27.04125 28.834375 -27.0825 26.66875 -27.125 24.4375 C-26.60862995 17.75151373 -26.60862995 17.75151373 -24.26953125 14.86328125 C-21.60458725 13.01969352 -18.85896602 11.52753419 -16 10 C-14.60834566 9.12120295 -13.22469951 8.22964479 -11.84765625 7.328125 C-3.86383799 2.13052749 -3.86383799 2.13052749 0 0 Z " fill="#000000" transform="translate(990,533)"/>
<path d="M0 0 C3.47239922 0.6335701 6.73869671 1.50078723 10.08203125 2.62890625 C11.47905273 3.09780273 11.47905273 3.09780273 12.90429688 3.57617188 C13.86400391 3.90166016 14.82371094 4.22714844 15.8125 4.5625 C16.79154297 4.89185547 17.77058594 5.22121094 18.77929688 5.56054688 C21.18712669 6.37098715 23.59397496 7.18422054 26 8 C26 12 26 12 24.71484375 13.640625 C24.12832031 14.17171875 23.54179688 14.7028125 22.9375 15.25 C17.12953368 20.72943489 12.07589658 26.84739809 7 33 C7.66 33.598125 8.32 34.19625 9 34.8125 C18.56798861 44.43516283 23.80753265 54.60567609 24.25 68.1875 C24.0980138 79.40408159 20.32866016 89.13847383 12.7734375 97.44921875 C1.96190291 107.83172419 -10.44518437 111.39442899 -25.125 111.375 C-26.63719116 111.37693359 -26.63719116 111.37693359 -28.17993164 111.37890625 C-36.34531766 111.26389161 -43.34721799 109.97092404 -51 107 C-51.309375 107.94875 -51.61875 108.8975 -51.9375 109.875 C-53 113 -53 113 -54 115 C-54.49488192 119.72949066 -54.49488192 119.72949066 -52.625 123.875 C-49.68730178 125.90879107 -47.81985568 126.1346943 -44.28173828 126.17358398 C-43.29956329 126.18707382 -42.31738831 126.20056366 -41.30545044 126.21446228 C-39.70405716 126.23011986 -39.70405716 126.23011986 -38.0703125 126.24609375 C-35.8072883 126.2790669 -33.54426756 126.31227789 -31.28125 126.34570312 C-27.71584764 126.39286065 -24.15045561 126.43721735 -20.58496094 126.47680664 C-17.14241915 126.51691999 -13.70018171 126.56840299 -10.2578125 126.62109375 C-9.21045929 126.6295079 -8.16310608 126.63792206 -7.08401489 126.64659119 C5.63469042 126.85539594 18.77613196 128.1493088 28.4921875 137.1875 C33.4976407 143.20441783 34.68850109 150.34278598 34.375 157.984375 C33.18624701 167.5439303 29.2003501 174.64382888 22 181 C1.67350722 195.87952413 -26.68684316 197.47825855 -50.875 193.8125 C-62.26851692 191.89887221 -73.14111649 188.98733857 -81 180 C-84.53195319 175.03319083 -84.85880441 169.91513599 -84 164 C-80.43704792 156.73705922 -74.41693372 152.65890077 -67 150 C-66.01 150 -65.02 150 -64 150 C-64 149.34 -64 148.68 -64 148 C-64.53625 147.938125 -65.0725 147.87625 -65.625 147.8125 C-69.8571972 146.36464306 -73.00591735 143.58149513 -75.375 139.8125 C-77.04970203 132.27634086 -76.44473817 126.30974711 -72.69140625 119.51953125 C-69.59994907 114.91447378 -65.87087376 110.95487102 -62 107 C-61.44183594 106.42636719 -60.88367187 105.85273437 -60.30859375 105.26171875 C-59.21973569 104.16045205 -58.11288255 103.07698311 -57 102 C-57.556875 101.773125 -58.11375 101.54625 -58.6875 101.3125 C-65.92590796 97.2042144 -71.14781605 89.10630923 -73.875 81.375 C-76.70058983 70.57721029 -76.02070161 58.81327831 -70.8984375 48.859375 C-69.69226108 46.82054777 -68.39390698 44.91461936 -67 43 C-66.59265625 42.40445313 -66.1853125 41.80890625 -65.765625 41.1953125 C-58.02250824 30.94706974 -45.24151405 26.8126625 -33 25 C-23.2248122 24.07702089 -14.44734263 25.58791252 -5 28 C-4.87753906 26.72253906 -4.75507812 25.44507813 -4.62890625 24.12890625 C-4.0574248 18.98557317 -3.04638775 13.98822899 -1.9375 8.9375 C-1.75123047 8.07189453 -1.56496094 7.20628906 -1.37304688 6.31445312 C-0.91933733 4.20877549 -0.46023996 2.10425993 0 0 Z M-43.69140625 53.0078125 C-48.28251649 60.0972192 -48.69097915 66.66876571 -48 75 C-46.3236168 81.26119025 -42.29995438 85.45113187 -37 89 C-30.68161662 92.15919169 -22.4599044 92.02341475 -15.75 90 C-10.30428381 87.64691276 -6.42096571 82.86561417 -3.828125 77.63671875 C-1.83537208 71.29186864 -1.83161416 63.57020271 -4.6875 57.5 C-7.65582767 52.57008517 -11.28904361 48.58618291 -16.79296875 46.51171875 C-26.29577393 44.30841348 -37.06772035 45.14505371 -43.69140625 53.0078125 Z M-60 154 C-61.21260877 157.63782632 -61.39544552 160.17735999 -61 164 C-55.6115836 170.97324475 -48.91014669 172.52577015 -40.55078125 173.65234375 C-25.52811721 175.12320965 -6.4889855 175.16515231 6.0625 165.6875 C8.52092619 162.27742496 9.15022684 160.20635163 9 156 C6.49500274 152.79917017 4.8617926 151.2872642 1 150 C-0.83427346 149.89192359 -2.67215695 149.84119696 -4.50952148 149.82299805 C-5.63756699 149.81016281 -6.76561249 149.79732758 -7.92784119 149.78410339 C-9.75600121 149.77302299 -9.75600121 149.77302299 -11.62109375 149.76171875 C-12.87253677 149.753647 -14.1239798 149.74557526 -15.41334534 149.73725891 C-18.06214093 149.72342091 -20.71081217 149.71240289 -23.35961914 149.70483398 C-26.75046766 149.69375544 -30.14066248 149.65933151 -33.53127956 149.61966228 C-36.76948614 149.58722575 -40.00774946 149.58272087 -43.24609375 149.57421875 C-44.46284286 149.55671066 -45.67959198 149.53920258 -46.93321228 149.52116394 C-48.63000877 149.52555229 -48.63000877 149.52555229 -50.36108398 149.5300293 C-51.3557518 149.52416306 -52.35041962 149.51829681 -53.37522888 149.51225281 C-56.74313549 150.1380929 -57.89813539 151.34742064 -60 154 Z " fill="#000000" transform="translate(1248,537)"/>
<path d="M0 0 C0.82951172 0.59361328 0.82951172 0.59361328 1.67578125 1.19921875 C12.63565746 9.68036464 17.9068592 23.26865948 19.69140625 36.61328125 C20.35477417 43.89353426 20.4353127 50.82343652 19 58 C-9.05 58 -37.1 58 -66 58 C-61.95510417 75.01939768 -61.95510417 75.01939768 -50.22265625 86.02734375 C-40.23251536 90.39912773 -27.49052716 90.72683797 -17.1796875 87.046875 C-9.2926207 83.25882141 -4.29212456 77.51121797 0 70 C3.14756649 71.38082898 5.13883972 72.94799155 7.453125 75.4765625 C8.071875 76.146875 8.690625 76.8171875 9.328125 77.5078125 C9.96234375 78.20648437 10.5965625 78.90515625 11.25 79.625 C12.22453125 80.68460938 12.22453125 80.68460938 13.21875 81.765625 C14.81775785 83.50572178 16.41122239 85.25056662 18 87 C10.90319489 100.23024302 -1.33553179 107.52422028 -15.4375 111.9375 C-32.43150629 115.6199159 -52.08573037 114.31561078 -67 105 C-80.33211427 95.67490623 -88.60397372 83.2166192 -91.6640625 67.13671875 C-94.87808724 46.6940265 -92.31980358 26.14639329 -80 9 C-60.86006358 -14.5541284 -24.18674832 -17.8771618 0 0 Z M-55.875 18.4375 C-56.57625 19.283125 -57.2775 20.12875 -58 21 C-58.65742187 21.73863281 -59.31484375 22.47726562 -59.9921875 23.23828125 C-62.25832896 26.35532797 -63.19659645 29.05472724 -64.25 32.75 C-64.58515625 33.89984375 -64.9203125 35.0496875 -65.265625 36.234375 C-66.04277382 38.68417336 -66.04277382 38.68417336 -66 40 C-46.2 40 -26.4 40 -6 40 C-7.08867494 30.2019255 -8.38721051 24.40166389 -16 18 C-27.86296301 9.64146519 -44.33572771 8.65420393 -55.875 18.4375 Z " fill="#000000" transform="translate(580,573)"/>
<path d="M0 0 C8.8990961 7.92632041 11.96724598 18.16485971 12.9296875 29.71875 C13.05039634 32.66175685 13.05710044 35.59806119 13.04321289 38.54321289 C13.04335892 39.37358063 13.04350494 40.20394836 13.0436554 41.05947876 C13.04296565 43.770149 13.03521778 46.4807482 13.02734375 49.19140625 C13.02547623 51.08426374 13.0240539 52.97712171 13.02305603 54.86997986 C13.01925716 59.82650105 13.00944961 64.78299245 12.99835205 69.73950195 C12.98808111 74.80745033 12.98354628 79.87540357 12.97851562 84.94335938 C12.96782474 94.8685026 12.95078026 104.79362381 12.9296875 114.71875 C8.96037761 114.74340881 4.99109716 114.76159023 1.02172852 114.77368164 C-0.32951636 114.77872057 -1.68075576 114.78555177 -3.03198242 114.79418945 C-4.97051684 114.80627419 -6.9090905 114.81144828 -8.84765625 114.81640625 C-10.59937134 114.82426147 -10.59937134 114.82426147 -12.38647461 114.83227539 C-15.0703125 114.71875 -15.0703125 114.71875 -16.0703125 113.71875 C-16.17412249 111.17498904 -16.21392846 108.65749818 -16.2121582 106.11303711 C-16.21563263 105.31619507 -16.21910706 104.51935303 -16.22268677 103.69836426 C-16.23005882 101.96101014 -16.23539644 100.22364651 -16.23897743 98.48628044 C-16.246129 95.73252061 -16.26178815 92.97894043 -16.28031921 90.22523499 C-16.33283243 82.39310254 -16.38071855 74.56106423 -16.39624023 66.72875977 C-16.40634907 61.94227794 -16.43575435 57.1562415 -16.47756004 52.36993599 C-16.48984137 50.54842061 -16.49499656 48.7268422 -16.49276161 46.90528679 C-16.49039602 44.34645403 -16.51267175 41.78888585 -16.5402832 39.23022461 C-16.53368179 38.48444656 -16.52708038 37.73866852 -16.52027893 36.97029114 C-16.63670531 30.35947326 -18.74258457 25.04647793 -23.4453125 20.34375 C-30.24910852 16.13187628 -37.28389312 15.96342069 -45.0703125 16.71875 C-50.85517044 18.28565881 -55.36015957 20.94855337 -59.0703125 25.71875 C-63.10087098 33.09672146 -64.17544745 39.80576192 -64.27563477 48.19287109 C-64.29048416 49.27683167 -64.29048416 49.27683167 -64.30563354 50.38269043 C-64.33702173 52.75249036 -64.36191544 55.12231029 -64.38671875 57.4921875 C-64.40730791 59.14271543 -64.42830488 60.79323832 -64.44969177 62.4437561 C-64.5047099 66.77390443 -64.55420796 71.10409873 -64.60253906 75.43432617 C-64.65290262 79.8586025 -64.70851092 84.2828126 -64.76367188 88.70703125 C-64.87100543 97.37754953 -64.97201971 106.04812451 -65.0703125 114.71875 C-74.3103125 114.71875 -83.5503125 114.71875 -93.0703125 114.71875 C-93.0703125 75.44875 -93.0703125 36.17875 -93.0703125 -4.28125 C-83.8303125 -4.28125 -74.5903125 -4.28125 -65.0703125 -4.28125 C-64.7403125 3.96875 -64.4103125 12.21875 -64.0703125 20.71875 C-63.1834375 18.8625 -62.2965625 17.00625 -61.3828125 15.09375 C-56.44442774 5.30885741 -50.24677435 -1.00375739 -39.8828125 -5.09375 C-26.76337396 -9.1801325 -11.31068324 -8.45193913 0 0 Z " fill="#000000" transform="translate(716.0703125,569.28125)"/>
<path d="M0 0 C2.875 2.4375 2.875 2.4375 5 5 C5.48855469 5.48855469 5.97710938 5.97710938 6.48046875 6.48046875 C13.10473666 13.36643614 16.06772583 23.08205347 16.18945312 32.51538086 C16.20617065 33.62010239 16.22288818 34.72482391 16.2401123 35.86302185 C16.25368774 37.05162308 16.26726318 38.2402243 16.28125 39.46484375 C16.29965942 40.69030411 16.31806885 41.91576447 16.33703613 43.17835999 C16.39579578 47.09802448 16.44860424 51.01773244 16.5 54.9375 C16.56768381 60.09253956 16.64137112 65.24744164 16.71875 70.40234375 C16.73232544 71.58892075 16.74590088 72.77549774 16.7598877 73.99803162 C16.77660522 75.1059053 16.79332275 76.21377899 16.81054688 77.35522461 C16.82307495 78.32689072 16.83560303 79.29855682 16.84851074 80.29966736 C16.99896275 82.98151078 17.28144956 85.41048969 18 88 C21.12731854 89.71199066 21.12731854 89.71199066 30 90 C30 97.92 30 105.84 30 114 C26.37 114.061875 22.74 114.12375 19 114.1875 C17.87207031 114.21481201 16.74414062 114.24212402 15.58203125 114.27026367 C8.03016769 114.33217511 2.20833472 113.63796411 -3.8125 108.6875 C-8.50183633 102.92631536 -9.7960016 97.16733167 -11 90 C-11.32871094 90.68964844 -11.65742187 91.37929688 -11.99609375 92.08984375 C-16.98730948 101.95053823 -23.40427767 110.04453693 -34 114 C-34.88042969 114.35320312 -35.76085938 114.70640625 -36.66796875 115.0703125 C-46.76671063 117.88801539 -59.16538214 117.27849504 -68.54296875 112.609375 C-74.63269164 108.6205581 -78.62182965 103.52752797 -80.5625 96.48046875 C-82.10706376 87.72334384 -81.57010819 79.74069815 -77 72 C-68.04567107 59.41093291 -54.44589309 54.05012272 -40.625 48.4375 C-39.30434776 47.89470608 -37.98403391 47.35108809 -36.6640625 46.80664062 C-34.70768788 45.9998424 -32.75109415 45.19365026 -30.79302979 44.39096069 C-24.16251262 41.67006657 -17.57883976 38.84333185 -11 36 C-12.01401963 29.72801158 -13.10887187 25.46581264 -18 21 C-26.05312183 16.68582759 -35.4327139 16.84278258 -44.1875 19.0625 C-54.3103917 22.60633243 -60.85464742 29.4686027 -67 38 C-71.40216285 36.40395517 -73.75523554 33.0729739 -76.625 29.5625 C-77.11484375 28.97662109 -77.6046875 28.39074219 -78.109375 27.78710938 C-84.03525883 20.65500056 -84.03525883 20.65500056 -83.8984375 18.11328125 C-79.38739703 7.50252953 -65.71810835 0.3656339 -55.625 -3.8125 C-37.3389147 -10.39116264 -16.78705566 -10.30289523 0 0 Z M-24.73510742 62.07910156 C-26.27226518 62.76987926 -27.81130369 63.45648874 -29.35229492 64.13867188 C-44.07289137 69.76785699 -44.07289137 69.76785699 -54 81 C-54.49276537 85.63199447 -53.87025842 88.30966775 -51 92 C-45.94004705 95.7481133 -39.0466647 95.19102803 -33.125 94.4375 C-25.48735875 92.98914831 -18.78319422 89.78927286 -14 83.5 C-10.01632646 77.52448968 -9.73114744 71.5631196 -9.875 64.625 C-9.88402344 63.79355469 -9.89304687 62.96210937 -9.90234375 62.10546875 C-9.9257378 60.07018663 -9.96160275 58.03505436 -10 56 C-14.42481391 56 -20.68545593 60.25373754 -24.73510742 62.07910156 Z " fill="#000000" transform="translate(1124,570)"/>
<path d="M0 0 C2.16608804 2.32369519 3.74698134 4.36601077 5.09375 7.24609375 C4.68553586 10.68366372 3.37533294 12.32347252 0.93359375 14.69921875 C-0.0090332 15.62734375 -0.0090332 15.62734375 -0.97070312 16.57421875 C-1.63005859 17.2084375 -2.28941406 17.84265625 -2.96875 18.49609375 C-3.96358398 19.470625 -3.96358398 19.470625 -4.97851562 20.46484375 C-6.61454317 22.06556135 -8.25715912 23.65885568 -9.90625 25.24609375 C-13.28071174 24.12127317 -13.92579686 23.26209826 -16.09375 20.55859375 C-22.53257631 12.99466726 -29.97542413 7.85380625 -39.90625 6.24609375 C-42.2159832 6.10561875 -44.52994538 6.02624104 -46.84375 5.99609375 C-48.02839844 5.9703125 -49.21304688 5.94453125 -50.43359375 5.91796875 C-54.23743528 6.27738685 -56.59160075 7.41266331 -59.90625 9.24609375 C-60.56625 9.24609375 -61.22625 9.24609375 -61.90625 9.24609375 C-62.84320374 12.05695498 -63.19648573 14.18473347 -63.34375 17.12109375 C-63.43462891 18.38566406 -63.43462891 18.38566406 -63.52734375 19.67578125 C-62.60348685 23.49903809 -60.09425062 25.23395418 -56.90625 27.24609375 C-53.80686965 28.68971135 -53.80686965 28.68971135 -50.40625 29.68359375 C-49.77678467 29.88404297 -49.14731934 30.08449219 -48.4987793 30.29101562 C-42.62225652 32.12222272 -36.66572137 33.66342389 -30.71875 35.24609375 C-16.30505017 39.10222961 -2.82769521 43.43807835 6.09375 56.24609375 C10.18026158 64.61371271 9.68442511 74.74755303 7.171875 83.484375 C3.79268503 92.14048845 -3.2004604 98.42866874 -11.55541992 102.27392578 C-19.83702518 105.69872089 -27.81319934 106.74625051 -36.71875 106.62109375 C-37.76973877 106.61094238 -38.82072754 106.60079102 -39.90356445 106.59033203 C-57.44643784 106.24139507 -73.63308506 101.21301071 -86.90625 89.24609375 C-89.63737561 86.13017037 -92.18141098 83.03044204 -93.90625 79.24609375 C-93.46682387 76.11631156 -92.44756524 74.38042065 -90.32421875 72.08203125 C-89.80408203 71.51742187 -89.28394531 70.9528125 -88.74804688 70.37109375 C-87.92916992 69.50484375 -87.92916992 69.50484375 -87.09375 68.62109375 C-86.55943359 68.03585937 -86.02511719 67.450625 -85.47460938 66.84765625 C-80.60590451 61.62562594 -80.60590451 61.62562594 -76.90625 60.24609375 C-76.57753906 60.73078125 -76.24882813 61.21546875 -75.91015625 61.71484375 C-68.21377802 72.56068841 -58.93715052 79.5828209 -45.84375 82.55859375 C-36.37779146 84.11628313 -27.57297328 83.97783835 -19.34375 78.55859375 C-17.64637541 75.82803463 -17.42576081 73.5353362 -17.375 70.34375 C-18.16704905 67.21632104 -19.67237681 65.54743291 -21.90625 63.24609375 C-29.87939239 59.05661324 -39.27188875 57.35882221 -47.96875 55.24609375 C-77.69369935 48.00616467 -77.69369935 48.00616467 -86.40625 35.80859375 C-91.17943822 27.82631288 -92.11578484 19.38306248 -90.32421875 10.29296875 C-87.7622377 1.16810474 -82.98343406 -5.53813395 -74.93359375 -10.63671875 C-50.14080662 -23.61296891 -20.39068918 -18.57009194 0 0 Z " fill="#000000" transform="translate(928.90625,579.75390625)"/>
</svg>
